solid floating
facet normal 0.0 -1.0 0.0
  outer loop
    vertex 0.9 0.0 0.07
    vertex 0.6 0.0 -0.029999999999999992
    vertex 0.9 0.0 -0.029999999999999995
  endloop
endfacet
facet normal 0.0 -1.0 0.0
  outer loop
    vertex 0.6 0.0 -0.029999999999999992
    vertex 0.9 0.0 0.07
    vertex 0.6 0.0 0.07
  endloop
endfacet
facet normal -0.0 1.0 -0.0
  outer loop
    vertex 0.6 0.6 -0.029999999999999992
    vertex 0.9 0.6 0.07
    vertex 0.9 0.6 -0.029999999999999995
  endloop
endfacet
facet normal -0.0 1.0 -0.0
  outer loop
    vertex 0.9 0.6 0.07
    vertex 0.6 0.6 -0.029999999999999992
    vertex 0.6 0.6 0.07
  endloop
endfacet
facet normal -1.8799776550319318e-17 -0.0 -1.0
  outer loop
    vertex 0.9 0.6 -0.029999999999999995
    vertex 0.6 0.0 -0.029999999999999992
    vertex 0.6 0.6 -0.029999999999999992
  endloop
endfacet
facet normal -1.8799776550319318e-17 -0.0 -1.0
  outer loop
    vertex 0.6 0.0 -0.029999999999999992
    vertex 0.9 0.6 -0.029999999999999995
    vertex 0.9 0.0 -0.029999999999999995
  endloop
endfacet
facet normal 1.0 0.0 -0.0
  outer loop
    vertex 0.9 0.6 -0.029999999999999995
    vertex 0.9 0.0 0.07
    vertex 0.9 0.0 -0.029999999999999995
  endloop
endfacet
facet normal 1.0 0.0 -0.0
  outer loop
    vertex 0.9 0.0 0.07
    vertex 0.9 0.6 -0.029999999999999995
    vertex 0.9 0.6 0.07
  endloop
endfacet
facet normal 0.0 0.0 1.0
  outer loop
    vertex 0.9 0.0 0.07
    vertex 0.6 0.6 0.07
    vertex 0.6 0.0 0.07
  endloop
endfacet
facet normal 0.0 0.0 1.0
  outer loop
    vertex 0.6 0.6 0.07
    vertex 0.9 0.0 0.07
    vertex 0.9 0.6 0.07
  endloop
endfacet
facet normal -1.0 -0.0 -0.0
  outer loop
    vertex 0.6 0.6 0.07
    vertex 0.6 0.0 -0.029999999999999992
    vertex 0.6 0.0 0.07
  endloop
endfacet
facet normal -1.0 -0.0 -0.0
  outer loop
    vertex 0.6 0.0 -0.029999999999999992
    vertex 0.6 0.6 0.07
    vertex 0.6 0.6 -0.029999999999999992
  endloop
endfacet
endsolid floating
