solid PC_0.2
facet normal -0.0 1.0 -0.0
  outer loop
    vertex 39.18 0.09999999999999994 0.6499999999999998
    vertex 39.195 0.09999999999999994 0.0999999999999998
    vertex 39.18 0.09999999999999994 0.0999999999999998
  endloop
endfacet
facet normal -0.0 1.0 -0.0
  outer loop
    vertex 39.195 0.09999999999999994 0.0999999999999998
    vertex 39.18 0.09999999999999994 0.6499999999999998
    vertex 39.195 0.09999999999999994 0.6099999999999998
  endloop
endfacet
facet normal -0.0 1.0 -0.0
  outer loop
    vertex 39.195 0.09999999999999994 0.0999999999999998
    vertex 39.195 0.09999999999999994 0.6099999999999998
    vertex 39.69500000000001 0.09999999999999994 0.0999999999999998
  endloop
endfacet
facet normal -0.0 1.0 -0.0
  outer loop
    vertex 39.195 0.09999999999999994 0.6099999999999998
    vertex 39.18 0.09999999999999994 0.6499999999999998
    vertex 39.195 0.09999999999999994 0.6499999999999998
  endloop
endfacet
facet normal -0.0 1.0 -0.0
  outer loop
    vertex 39.69500000000001 0.09999999999999994 0.6099999999999998
    vertex 39.69500000000001 0.09999999999999994 0.0999999999999998
    vertex 39.195 0.09999999999999994 0.6099999999999998
  endloop
endfacet
facet normal 0.0 0.0 -1.0
  outer loop
    vertex 39.69500000000001 0.09999999999999994 0.0999999999999998
    vertex 39.195 -0.10000000000000009 0.0999999999999998
    vertex 39.195 0.09999999999999994 0.0999999999999998
  endloop
endfacet
facet normal 0.0 0.0 -1.0
  outer loop
    vertex 39.195 -0.10000000000000009 0.0999999999999998
    vertex 39.69500000000001 0.09999999999999994 0.0999999999999998
    vertex 39.69500000000001 -0.10000000000000009 0.0999999999999998
  endloop
endfacet
facet normal 1.0 0.0 -0.0
  outer loop
    vertex 39.69500000000001 0.09999999999999994 0.0999999999999998
    vertex 39.69500000000001 -0.10000000000000009 0.6099999999999998
    vertex 39.69500000000001 -0.10000000000000009 0.0999999999999998
  endloop
endfacet
facet normal 1.0 0.0 -0.0
  outer loop
    vertex 39.69500000000001 -0.10000000000000009 0.6099999999999998
    vertex 39.69500000000001 0.09999999999999994 0.0999999999999998
    vertex 39.69500000000001 0.09999999999999994 0.6099999999999998
  endloop
endfacet
facet normal 0.0 0.0 1.0
  outer loop
    vertex 39.69500000000001 -0.10000000000000009 0.6099999999999998
    vertex 39.195 0.09999999999999994 0.6099999999999998
    vertex 39.195 -0.10000000000000009 0.6099999999999998
  endloop
endfacet
facet normal 0.0 0.0 1.0
  outer loop
    vertex 39.195 0.09999999999999994 0.6099999999999998
    vertex 39.69500000000001 -0.10000000000000009 0.6099999999999998
    vertex 39.69500000000001 0.09999999999999994 0.6099999999999998
  endloop
endfacet
facet normal 1.0 0.0 -0.0
  outer loop
    vertex 39.195 0.09999999999999994 0.6099999999999998
    vertex 39.195 -0.10000000000000009 0.6499999999999998
    vertex 39.195 -0.10000000000000009 0.6099999999999998
  endloop
endfacet
facet normal 1.0 0.0 -0.0
  outer loop
    vertex 39.195 -0.10000000000000009 0.6499999999999998
    vertex 39.195 0.09999999999999994 0.6099999999999998
    vertex 39.195 0.09999999999999994 0.6499999999999998
  endloop
endfacet
facet normal 0.0 0.0 1.0
  outer loop
    vertex 39.195 -0.10000000000000009 0.6499999999999998
    vertex 39.18 0.09999999999999994 0.6499999999999998
    vertex 39.18 -0.10000000000000009 0.6499999999999998
  endloop
endfacet
facet normal 0.0 0.0 1.0
  outer loop
    vertex 39.18 0.09999999999999994 0.6499999999999998
    vertex 39.195 -0.10000000000000009 0.6499999999999998
    vertex 39.195 0.09999999999999994 0.6499999999999998
  endloop
endfacet
facet normal 0.0 0.0 -1.0
  outer loop
    vertex 39.195 0.09999999999999994 -0.1500000000000002
    vertex 39.18 -0.10000000000000009 -0.1500000000000002
    vertex 39.18 0.09999999999999994 -0.1500000000000002
  endloop
endfacet
facet normal 0.0 0.0 -1.0
  outer loop
    vertex 39.18 -0.10000000000000009 -0.1500000000000002
    vertex 39.195 0.09999999999999994 -0.1500000000000002
    vertex 39.195 -0.10000000000000009 -0.1500000000000002
  endloop
endfacet
facet normal 0.0 -1.0 0.0
  outer loop
    vertex 39.195 -0.10000000000000009 -0.10960000000000018
    vertex 39.18 -0.10000000000000009 -0.1500000000000002
    vertex 39.195 -0.10000000000000009 -0.1500000000000002
  endloop
endfacet
facet normal 0.0 -1.0 0.0
  outer loop
    vertex 39.18 -0.10000000000000009 -0.1500000000000002
    vertex 39.195 -0.10000000000000009 -0.10960000000000018
    vertex 39.18 -0.10000000000000009 -0.10960000000000018
  endloop
endfacet
facet normal -1.0 0.0 0.0
  outer loop
    vertex 39.18 0.09999999999999994 -0.10960000000000018
    vertex 39.18 -0.10000000000000009 -0.1500000000000002
    vertex 39.18 -0.10000000000000009 -0.10960000000000018
  endloop
endfacet
facet normal -1.0 0.0 0.0
  outer loop
    vertex 39.18 -0.10000000000000009 -0.1500000000000002
    vertex 39.18 0.09999999999999994 -0.10960000000000018
    vertex 39.18 0.09999999999999994 -0.1500000000000002
  endloop
endfacet
facet normal -0.0 1.0 -0.0
  outer loop
    vertex 39.18 0.09999999999999994 -0.10960000000000018
    vertex 39.195 0.09999999999999994 -0.1500000000000002
    vertex 39.18 0.09999999999999994 -0.1500000000000002
  endloop
endfacet
facet normal -0.0 1.0 -0.0
  outer loop
    vertex 39.195 0.09999999999999994 -0.1500000000000002
    vertex 39.18 0.09999999999999994 -0.10960000000000018
    vertex 39.195 0.09999999999999994 -0.10960000000000018
  endloop
endfacet
facet normal -0.0 -0.0 1.0
  outer loop
    vertex 39.195 -0.10000000000000009 -0.10960000000000018
    vertex 39.18 0.09999999999999994 -0.10960000000000018
    vertex 39.18 -0.10000000000000009 -0.10960000000000018
  endloop
endfacet
facet normal -0.0 -0.0 1.0
  outer loop
    vertex 39.18 0.09999999999999994 -0.10960000000000018
    vertex 39.195 -0.10000000000000009 -0.10960000000000018
    vertex 39.195 0.09999999999999994 -0.10960000000000018
  endloop
endfacet
facet normal 1.0 -0.0 -0.0
  outer loop
    vertex 39.195 0.09999999999999994 -0.1500000000000002
    vertex 39.195 -0.10000000000000009 -0.10960000000000018
    vertex 39.195 -0.10000000000000009 -0.1500000000000002
  endloop
endfacet
facet normal 1.0 -0.0 -0.0
  outer loop
    vertex 39.195 -0.10000000000000009 -0.10960000000000018
    vertex 39.195 0.09999999999999994 -0.1500000000000002
    vertex 39.195 0.09999999999999994 -0.10960000000000018
  endloop
endfacet
facet normal 0.0 -1.0 0.0
  outer loop
    vertex 39.69500000000001 -0.10000000000000009 0.6099999999999998
    vertex 39.195 -0.10000000000000009 0.0999999999999998
    vertex 39.69500000000001 -0.10000000000000009 0.0999999999999998
  endloop
endfacet
facet normal 0.0 -1.0 0.0
  outer loop
    vertex 39.195 -0.10000000000000009 0.0999999999999998
    vertex 39.18 -0.10000000000000009 0.05959999999999981
    vertex 39.195 -0.10000000000000009 0.05959999999999981
  endloop
endfacet
facet normal 0.0 -1.0 0.0
  outer loop
    vertex 39.18 -0.10000000000000009 0.05959999999999981
    vertex 39.195 -0.10000000000000009 0.0999999999999998
    vertex 39.18 -0.10000000000000009 0.6499999999999998
  endloop
endfacet
facet normal 0.0 -1.0 0.0
  outer loop
    vertex 39.18 -0.10000000000000009 0.6499999999999998
    vertex 39.195 -0.10000000000000009 0.0999999999999998
    vertex 39.195 -0.10000000000000009 0.6099999999999998
  endloop
endfacet
facet normal 0.0 -1.0 0.0
  outer loop
    vertex 39.195 -0.10000000000000009 0.6099999999999998
    vertex 39.195 -0.10000000000000009 0.0999999999999998
    vertex 39.69500000000001 -0.10000000000000009 0.6099999999999998
  endloop
endfacet
facet normal 0.0 -1.0 0.0
  outer loop
    vertex 39.18 -0.10000000000000009 0.6499999999999998
    vertex 39.195 -0.10000000000000009 0.6099999999999998
    vertex 39.195 -0.10000000000000009 0.6499999999999998
  endloop
endfacet
facet normal 0.0 -1.0 0.0
  outer loop
    vertex 39.195 -0.10000000000000009 -0.05720000000000019
    vertex 39.18 -0.10000000000000009 -0.09760000000000019
    vertex 39.195 -0.10000000000000009 -0.09760000000000019
  endloop
endfacet
facet normal 0.0 -1.0 0.0
  outer loop
    vertex 39.18 -0.10000000000000009 -0.09760000000000019
    vertex 39.195 -0.10000000000000009 -0.05720000000000019
    vertex 39.18 -0.10000000000000009 -0.05720000000000019
  endloop
endfacet
facet normal 0.0 -1.0 0.0
  outer loop
    vertex 39.195 -0.10000000000000009 -0.004800000000000189
    vertex 39.18 -0.10000000000000009 -0.04520000000000019
    vertex 39.195 -0.10000000000000009 -0.04520000000000019
  endloop
endfacet
facet normal 0.0 -1.0 0.0
  outer loop
    vertex 39.18 -0.10000000000000009 -0.04520000000000019
    vertex 39.195 -0.10000000000000009 -0.004800000000000189
    vertex 39.18 -0.10000000000000009 -0.004800000000000189
  endloop
endfacet
facet normal 0.0 -1.0 0.0
  outer loop
    vertex 39.195 -0.10000000000000009 0.04759999999999981
    vertex 39.18 -0.10000000000000009 0.007199999999999811
    vertex 39.195 -0.10000000000000009 0.007199999999999811
  endloop
endfacet
facet normal 0.0 -1.0 0.0
  outer loop
    vertex 39.18 -0.10000000000000009 0.007199999999999811
    vertex 39.195 -0.10000000000000009 0.04759999999999981
    vertex 39.18 -0.10000000000000009 0.04759999999999981
  endloop
endfacet
facet normal -1.0 0.0 0.0
  outer loop
    vertex 39.18 0.09999999999999994 0.6499999999999998
    vertex 39.18 -0.10000000000000009 0.05959999999999981
    vertex 39.18 -0.10000000000000009 0.6499999999999998
  endloop
endfacet
facet normal -1.0 0.0 0.0
  outer loop
    vertex 39.18 -0.10000000000000009 0.05959999999999981
    vertex 39.18 0.09999999999999994 0.6499999999999998
    vertex 39.18 0.09999999999999994 0.05959999999999981
  endloop
endfacet
facet normal -1.0 0.0 0.0
  outer loop
    vertex 39.18 0.09999999999999994 0.05959999999999981
    vertex 39.18 0.09999999999999994 0.6499999999999998
    vertex 39.18 0.09999999999999994 0.0999999999999998
  endloop
endfacet
facet normal 1.0 -0.0 -0.0
  outer loop
    vertex 39.195 0.09999999999999994 0.05959999999999981
    vertex 39.195 -0.10000000000000009 0.0999999999999998
    vertex 39.195 -0.10000000000000009 0.05959999999999981
  endloop
endfacet
facet normal 1.0 -0.0 -0.0
  outer loop
    vertex 39.195 -0.10000000000000009 0.0999999999999998
    vertex 39.195 0.09999999999999994 0.05959999999999981
    vertex 39.195 0.09999999999999994 0.0999999999999998
  endloop
endfacet
facet normal 0.0 0.0 -1.0
  outer loop
    vertex 39.195 0.09999999999999994 0.05959999999999981
    vertex 39.18 -0.10000000000000009 0.05959999999999981
    vertex 39.18 0.09999999999999994 0.05959999999999981
  endloop
endfacet
facet normal 0.0 0.0 -1.0
  outer loop
    vertex 39.18 -0.10000000000000009 0.05959999999999981
    vertex 39.195 0.09999999999999994 0.05959999999999981
    vertex 39.195 -0.10000000000000009 0.05959999999999981
  endloop
endfacet
facet normal -0.0 1.0 -0.0
  outer loop
    vertex 39.18 0.09999999999999994 0.0999999999999998
    vertex 39.195 0.09999999999999994 0.05959999999999981
    vertex 39.18 0.09999999999999994 0.05959999999999981
  endloop
endfacet
facet normal -0.0 1.0 -0.0
  outer loop
    vertex 39.195 0.09999999999999994 0.05959999999999981
    vertex 39.18 0.09999999999999994 0.0999999999999998
    vertex 39.195 0.09999999999999994 0.0999999999999998
  endloop
endfacet
facet normal -0.0 1.0 -0.0
  outer loop
    vertex 39.18 0.09999999999999994 0.04759999999999981
    vertex 39.195 0.09999999999999994 0.007199999999999811
    vertex 39.18 0.09999999999999994 0.007199999999999811
  endloop
endfacet
facet normal -0.0 1.0 -0.0
  outer loop
    vertex 39.195 0.09999999999999994 0.007199999999999811
    vertex 39.18 0.09999999999999994 0.04759999999999981
    vertex 39.195 0.09999999999999994 0.04759999999999981
  endloop
endfacet
facet normal -1.0 -0.0 -0.0
  outer loop
    vertex 39.18 0.09999999999999994 0.04759999999999981
    vertex 39.18 -0.10000000000000009 0.007199999999999811
    vertex 39.18 -0.10000000000000009 0.04759999999999981
  endloop
endfacet
facet normal -1.0 -0.0 -0.0
  outer loop
    vertex 39.18 -0.10000000000000009 0.007199999999999811
    vertex 39.18 0.09999999999999994 0.04759999999999981
    vertex 39.18 0.09999999999999994 0.007199999999999811
  endloop
endfacet
facet normal 0.0 0.0 -1.0
  outer loop
    vertex 39.195 0.09999999999999994 0.007199999999999811
    vertex 39.18 -0.10000000000000009 0.007199999999999811
    vertex 39.18 0.09999999999999994 0.007199999999999811
  endloop
endfacet
facet normal 0.0 0.0 -1.0
  outer loop
    vertex 39.18 -0.10000000000000009 0.007199999999999811
    vertex 39.195 0.09999999999999994 0.007199999999999811
    vertex 39.195 -0.10000000000000009 0.007199999999999811
  endloop
endfacet
facet normal 1.0 0.0 -0.0
  outer loop
    vertex 39.195 0.09999999999999994 0.007199999999999811
    vertex 39.195 -0.10000000000000009 0.04759999999999981
    vertex 39.195 -0.10000000000000009 0.007199999999999811
  endloop
endfacet
facet normal 1.0 0.0 -0.0
  outer loop
    vertex 39.195 -0.10000000000000009 0.04759999999999981
    vertex 39.195 0.09999999999999994 0.007199999999999811
    vertex 39.195 0.09999999999999994 0.04759999999999981
  endloop
endfacet
facet normal 0.0 0.0 1.0
  outer loop
    vertex 39.195 -0.10000000000000009 0.04759999999999981
    vertex 39.18 0.09999999999999994 0.04759999999999981
    vertex 39.18 -0.10000000000000009 0.04759999999999981
  endloop
endfacet
facet normal 0.0 0.0 1.0
  outer loop
    vertex 39.18 0.09999999999999994 0.04759999999999981
    vertex 39.195 -0.10000000000000009 0.04759999999999981
    vertex 39.195 0.09999999999999994 0.04759999999999981
  endloop
endfacet
facet normal -0.0 1.0 -0.0
  outer loop
    vertex 39.18 0.09999999999999994 -0.004800000000000189
    vertex 39.195 0.09999999999999994 -0.04520000000000019
    vertex 39.18 0.09999999999999994 -0.04520000000000019
  endloop
endfacet
facet normal -0.0 1.0 -0.0
  outer loop
    vertex 39.195 0.09999999999999994 -0.04520000000000019
    vertex 39.18 0.09999999999999994 -0.004800000000000189
    vertex 39.195 0.09999999999999994 -0.004800000000000189
  endloop
endfacet
facet normal -1.0 -0.0 -0.0
  outer loop
    vertex 39.18 0.09999999999999994 -0.004800000000000189
    vertex 39.18 -0.10000000000000009 -0.04520000000000019
    vertex 39.18 -0.10000000000000009 -0.004800000000000189
  endloop
endfacet
facet normal -1.0 -0.0 -0.0
  outer loop
    vertex 39.18 -0.10000000000000009 -0.04520000000000019
    vertex 39.18 0.09999999999999994 -0.004800000000000189
    vertex 39.18 0.09999999999999994 -0.04520000000000019
  endloop
endfacet
facet normal 0.0 0.0 -1.0
  outer loop
    vertex 39.195 0.09999999999999994 -0.04520000000000019
    vertex 39.18 -0.10000000000000009 -0.04520000000000019
    vertex 39.18 0.09999999999999994 -0.04520000000000019
  endloop
endfacet
facet normal 0.0 0.0 -1.0
  outer loop
    vertex 39.18 -0.10000000000000009 -0.04520000000000019
    vertex 39.195 0.09999999999999994 -0.04520000000000019
    vertex 39.195 -0.10000000000000009 -0.04520000000000019
  endloop
endfacet
facet normal 1.0 0.0 -0.0
  outer loop
    vertex 39.195 0.09999999999999994 -0.04520000000000019
    vertex 39.195 -0.10000000000000009 -0.004800000000000189
    vertex 39.195 -0.10000000000000009 -0.04520000000000019
  endloop
endfacet
facet normal 1.0 0.0 -0.0
  outer loop
    vertex 39.195 -0.10000000000000009 -0.004800000000000189
    vertex 39.195 0.09999999999999994 -0.04520000000000019
    vertex 39.195 0.09999999999999994 -0.004800000000000189
  endloop
endfacet
facet normal 0.0 0.0 1.0
  outer loop
    vertex 39.195 -0.10000000000000009 -0.004800000000000189
    vertex 39.18 0.09999999999999994 -0.004800000000000189
    vertex 39.18 -0.10000000000000009 -0.004800000000000189
  endloop
endfacet
facet normal 0.0 0.0 1.0
  outer loop
    vertex 39.18 0.09999999999999994 -0.004800000000000189
    vertex 39.195 -0.10000000000000009 -0.004800000000000189
    vertex 39.195 0.09999999999999994 -0.004800000000000189
  endloop
endfacet
facet normal -0.0 1.0 -0.0
  outer loop
    vertex 39.18 0.09999999999999994 -0.05720000000000019
    vertex 39.195 0.09999999999999994 -0.09760000000000019
    vertex 39.18 0.09999999999999994 -0.09760000000000019
  endloop
endfacet
facet normal -0.0 1.0 -0.0
  outer loop
    vertex 39.195 0.09999999999999994 -0.09760000000000019
    vertex 39.18 0.09999999999999994 -0.05720000000000019
    vertex 39.195 0.09999999999999994 -0.05720000000000019
  endloop
endfacet
facet normal -1.0 -0.0 -0.0
  outer loop
    vertex 39.18 0.09999999999999994 -0.05720000000000019
    vertex 39.18 -0.10000000000000009 -0.09760000000000019
    vertex 39.18 -0.10000000000000009 -0.05720000000000019
  endloop
endfacet
facet normal -1.0 -0.0 -0.0
  outer loop
    vertex 39.18 -0.10000000000000009 -0.09760000000000019
    vertex 39.18 0.09999999999999994 -0.05720000000000019
    vertex 39.18 0.09999999999999994 -0.09760000000000019
  endloop
endfacet
facet normal 0.0 0.0 -1.0
  outer loop
    vertex 39.195 0.09999999999999994 -0.09760000000000019
    vertex 39.18 -0.10000000000000009 -0.09760000000000019
    vertex 39.18 0.09999999999999994 -0.09760000000000019
  endloop
endfacet
facet normal 0.0 0.0 -1.0
  outer loop
    vertex 39.18 -0.10000000000000009 -0.09760000000000019
    vertex 39.195 0.09999999999999994 -0.09760000000000019
    vertex 39.195 -0.10000000000000009 -0.09760000000000019
  endloop
endfacet
facet normal 1.0 0.0 -0.0
  outer loop
    vertex 39.195 0.09999999999999994 -0.09760000000000019
    vertex 39.195 -0.10000000000000009 -0.05720000000000019
    vertex 39.195 -0.10000000000000009 -0.09760000000000019
  endloop
endfacet
facet normal 1.0 0.0 -0.0
  outer loop
    vertex 39.195 -0.10000000000000009 -0.05720000000000019
    vertex 39.195 0.09999999999999994 -0.09760000000000019
    vertex 39.195 0.09999999999999994 -0.05720000000000019
  endloop
endfacet
facet normal 0.0 0.0 1.0
  outer loop
    vertex 39.195 -0.10000000000000009 -0.05720000000000019
    vertex 39.18 0.09999999999999994 -0.05720000000000019
    vertex 39.18 -0.10000000000000009 -0.05720000000000019
  endloop
endfacet
facet normal 0.0 0.0 1.0
  outer loop
    vertex 39.18 0.09999999999999994 -0.05720000000000019
    vertex 39.195 -0.10000000000000009 -0.05720000000000019
    vertex 39.195 0.09999999999999994 -0.05720000000000019
  endloop
endfacet
endsolid PC_0.2
