solid cassion_b=0.5
facet normal -0.0 1.0 -0.0
  outer loop
    vertex 14.149999999999999 0.05000000000000016 -0.45799999999999996
    vertex 14.159999999999997 0.05000000000000016 -0.5
    vertex 14.149999999999999 0.05000000000000016 -0.5
  endloop
endfacet
facet normal -0.0 1.0 -0.0
  outer loop
    vertex 14.159999999999997 0.05000000000000016 -0.5
    vertex 14.149999999999999 0.05000000000000016 -0.45799999999999996
    vertex 14.159999999999997 0.05000000000000016 -0.45799999999999996
  endloop
endfacet
facet normal -0.0 1.0 -0.0
  outer loop
    vertex 14.149999999999999 0.05000000000000016 -0.3679999999999998
    vertex 14.159999999999997 0.05000000000000016 -0.42200000000000004
    vertex 14.149999999999999 0.05000000000000016 -0.42200000000000004
  endloop
endfacet
facet normal -0.0 1.0 -0.0
  outer loop
    vertex 14.159999999999997 0.05000000000000016 -0.42200000000000004
    vertex 14.149999999999999 0.05000000000000016 -0.3679999999999998
    vertex 14.159999999999997 0.05000000000000016 -0.3679999999999998
  endloop
endfacet
facet normal -0.0 1.0 -0.0
  outer loop
    vertex 14.149999999999999 0.05000000000000016 -0.27799999999999975
    vertex 14.159999999999997 0.05000000000000016 -0.3319999999999998
    vertex 14.149999999999999 0.05000000000000016 -0.3319999999999998
  endloop
endfacet
facet normal -0.0 1.0 -0.0
  outer loop
    vertex 14.159999999999997 0.05000000000000016 -0.3319999999999998
    vertex 14.149999999999999 0.05000000000000016 -0.27799999999999975
    vertex 14.159999999999997 0.05000000000000016 -0.27799999999999975
  endloop
endfacet
facet normal -0.0 1.0 -0.0
  outer loop
    vertex 14.149999999999999 0.05000000000000016 -0.1879999999999998
    vertex 14.159999999999997 0.05000000000000016 -0.2419999999999997
    vertex 14.149999999999999 0.05000000000000016 -0.2419999999999997
  endloop
endfacet
facet normal -0.0 1.0 -0.0
  outer loop
    vertex 14.159999999999997 0.05000000000000016 -0.2419999999999997
    vertex 14.149999999999999 0.05000000000000016 -0.1879999999999998
    vertex 14.159999999999997 0.05000000000000016 -0.1879999999999998
  endloop
endfacet
facet normal -0.0 1.0 -0.0
  outer loop
    vertex 14.149999999999999 0.05000000000000016 0.08200000000000031
    vertex 14.159999999999997 0.05000000000000016 0.02800000000000031
    vertex 14.149999999999999 0.05000000000000016 0.02800000000000031
  endloop
endfacet
facet normal -0.0 1.0 -0.0
  outer loop
    vertex 14.159999999999997 0.05000000000000016 0.02800000000000031
    vertex 14.149999999999999 0.05000000000000016 0.08200000000000031
    vertex 14.159999999999997 0.05000000000000016 0.08200000000000031
  endloop
endfacet
facet normal -0.0 1.0 -0.0
  outer loop
    vertex 14.149999999999999 0.05000000000000016 -0.007999999999999804
    vertex 14.159999999999997 0.05000000000000016 -0.0619999999999998
    vertex 14.149999999999999 0.05000000000000016 -0.0619999999999998
  endloop
endfacet
facet normal -0.0 1.0 -0.0
  outer loop
    vertex 14.159999999999997 0.05000000000000016 -0.0619999999999998
    vertex 14.149999999999999 0.05000000000000016 -0.007999999999999804
    vertex 14.159999999999997 0.05000000000000016 -0.007999999999999804
  endloop
endfacet
facet normal -0.0 1.0 -0.0
  outer loop
    vertex 14.149999999999999 0.05000000000000016 -0.09799999999999968
    vertex 14.159999999999997 0.05000000000000016 -0.1519999999999997
    vertex 14.149999999999999 0.05000000000000016 -0.1519999999999997
  endloop
endfacet
facet normal -0.0 1.0 -0.0
  outer loop
    vertex 14.159999999999997 0.05000000000000016 -0.1519999999999997
    vertex 14.149999999999999 0.05000000000000016 -0.09799999999999968
    vertex 14.159999999999997 0.05000000000000016 -0.09799999999999968
  endloop
endfacet
facet normal -0.0 1.0 -0.0
  outer loop
    vertex 14.149999999999999 0.05000000000000016 0.17200000000000076
    vertex 14.159999999999997 0.05000000000000016 0.11800000000000042
    vertex 14.149999999999999 0.05000000000000016 0.11800000000000042
  endloop
endfacet
facet normal -0.0 1.0 -0.0
  outer loop
    vertex 14.159999999999997 0.05000000000000016 0.11800000000000042
    vertex 14.149999999999999 0.05000000000000016 0.17200000000000076
    vertex 14.159999999999997 0.05000000000000016 0.17200000000000076
  endloop
endfacet
facet normal -0.0 1.0 -0.0
  outer loop
    vertex 14.149999999999999 0.05000000000000016 0.2500000000000007
    vertex 14.159999999999997 0.05000000000000016 0.20800000000000088
    vertex 14.149999999999999 0.05000000000000016 0.20800000000000088
  endloop
endfacet
facet normal -0.0 1.0 -0.0
  outer loop
    vertex 14.159999999999997 0.05000000000000016 0.20800000000000088
    vertex 14.149999999999999 0.05000000000000016 0.2500000000000007
    vertex 14.159999999999997 0.05000000000000016 0.2500000000000007
  endloop
endfacet
facet normal 0.0 -1.0 0.0
  outer loop
    vertex 14.159999999999997 -0.04999999999999998 0.2500000000000007
    vertex 14.149999999999999 -0.04999999999999998 0.20800000000000088
    vertex 14.159999999999997 -0.04999999999999998 0.20800000000000088
  endloop
endfacet
facet normal 0.0 -1.0 0.0
  outer loop
    vertex 14.149999999999999 -0.04999999999999998 0.20800000000000088
    vertex 14.159999999999997 -0.04999999999999998 0.2500000000000007
    vertex 14.149999999999999 -0.04999999999999998 0.2500000000000007
  endloop
endfacet
facet normal -1.0 0.0 0.0
  outer loop
    vertex 14.149999999999999 0.05000000000000016 0.2500000000000007
    vertex 14.149999999999999 -0.04999999999999998 0.20800000000000088
    vertex 14.149999999999999 -0.04999999999999998 0.2500000000000007
  endloop
endfacet
facet normal -1.0 0.0 0.0
  outer loop
    vertex 14.149999999999999 -0.04999999999999998 0.20800000000000088
    vertex 14.149999999999999 0.05000000000000016 0.2500000000000007
    vertex 14.149999999999999 0.05000000000000016 0.20800000000000088
  endloop
endfacet
facet normal 0.0 0.0 -1.0
  outer loop
    vertex 14.159999999999997 0.05000000000000016 0.20800000000000088
    vertex 14.149999999999999 -0.04999999999999998 0.20800000000000088
    vertex 14.149999999999999 0.05000000000000016 0.20800000000000088
  endloop
endfacet
facet normal 0.0 0.0 -1.0
  outer loop
    vertex 14.149999999999999 -0.04999999999999998 0.20800000000000088
    vertex 14.159999999999997 0.05000000000000016 0.20800000000000088
    vertex 14.159999999999997 -0.04999999999999998 0.20800000000000088
  endloop
endfacet
facet normal 1.0 -0.0 -0.0
  outer loop
    vertex 14.159999999999997 0.05000000000000016 0.20800000000000088
    vertex 14.159999999999997 -0.04999999999999998 0.2500000000000007
    vertex 14.159999999999997 -0.04999999999999998 0.20800000000000088
  endloop
endfacet
facet normal 1.0 -0.0 -0.0
  outer loop
    vertex 14.159999999999997 -0.04999999999999998 0.2500000000000007
    vertex 14.159999999999997 0.05000000000000016 0.20800000000000088
    vertex 14.159999999999997 0.05000000000000016 0.2500000000000007
  endloop
endfacet
facet normal -0.0 -0.0 1.0
  outer loop
    vertex 14.159999999999997 -0.04999999999999998 0.2500000000000007
    vertex 14.149999999999999 0.05000000000000016 0.2500000000000007
    vertex 14.149999999999999 -0.04999999999999998 0.2500000000000007
  endloop
endfacet
facet normal -0.0 -0.0 1.0
  outer loop
    vertex 14.149999999999999 0.05000000000000016 0.2500000000000007
    vertex 14.159999999999997 -0.04999999999999998 0.2500000000000007
    vertex 14.159999999999997 0.05000000000000016 0.2500000000000007
  endloop
endfacet
facet normal 0.0 -1.0 0.0
  outer loop
    vertex 14.159999999999997 -0.04999999999999998 0.17200000000000076
    vertex 14.149999999999999 -0.04999999999999998 0.11800000000000042
    vertex 14.159999999999997 -0.04999999999999998 0.11800000000000042
  endloop
endfacet
facet normal 0.0 -1.0 0.0
  outer loop
    vertex 14.149999999999999 -0.04999999999999998 0.11800000000000042
    vertex 14.159999999999997 -0.04999999999999998 0.17200000000000076
    vertex 14.149999999999999 -0.04999999999999998 0.17200000000000076
  endloop
endfacet
facet normal -1.0 0.0 0.0
  outer loop
    vertex 14.149999999999999 0.05000000000000016 0.17200000000000076
    vertex 14.149999999999999 -0.04999999999999998 0.11800000000000042
    vertex 14.149999999999999 -0.04999999999999998 0.17200000000000076
  endloop
endfacet
facet normal -1.0 0.0 0.0
  outer loop
    vertex 14.149999999999999 -0.04999999999999998 0.11800000000000042
    vertex 14.149999999999999 0.05000000000000016 0.17200000000000076
    vertex 14.149999999999999 0.05000000000000016 0.11800000000000042
  endloop
endfacet
facet normal 0.0 0.0 -1.0
  outer loop
    vertex 14.159999999999997 0.05000000000000016 0.11800000000000042
    vertex 14.149999999999999 -0.04999999999999998 0.11800000000000042
    vertex 14.149999999999999 0.05000000000000016 0.11800000000000042
  endloop
endfacet
facet normal 0.0 0.0 -1.0
  outer loop
    vertex 14.149999999999999 -0.04999999999999998 0.11800000000000042
    vertex 14.159999999999997 0.05000000000000016 0.11800000000000042
    vertex 14.159999999999997 -0.04999999999999998 0.11800000000000042
  endloop
endfacet
facet normal 1.0 -0.0 -0.0
  outer loop
    vertex 14.159999999999997 0.05000000000000016 0.11800000000000042
    vertex 14.159999999999997 -0.04999999999999998 0.17200000000000076
    vertex 14.159999999999997 -0.04999999999999998 0.11800000000000042
  endloop
endfacet
facet normal 1.0 -0.0 -0.0
  outer loop
    vertex 14.159999999999997 -0.04999999999999998 0.17200000000000076
    vertex 14.159999999999997 0.05000000000000016 0.11800000000000042
    vertex 14.159999999999997 0.05000000000000016 0.17200000000000076
  endloop
endfacet
facet normal -0.0 -0.0 1.0
  outer loop
    vertex 14.159999999999997 -0.04999999999999998 0.17200000000000076
    vertex 14.149999999999999 0.05000000000000016 0.17200000000000076
    vertex 14.149999999999999 -0.04999999999999998 0.17200000000000076
  endloop
endfacet
facet normal -0.0 -0.0 1.0
  outer loop
    vertex 14.149999999999999 0.05000000000000016 0.17200000000000076
    vertex 14.159999999999997 -0.04999999999999998 0.17200000000000076
    vertex 14.159999999999997 0.05000000000000016 0.17200000000000076
  endloop
endfacet
facet normal 0.0 -1.0 0.0
  outer loop
    vertex 14.159999999999997 -0.04999999999999998 0.08200000000000031
    vertex 14.149999999999999 -0.04999999999999998 0.02800000000000031
    vertex 14.159999999999997 -0.04999999999999998 0.02800000000000031
  endloop
endfacet
facet normal 0.0 -1.0 0.0
  outer loop
    vertex 14.149999999999999 -0.04999999999999998 0.02800000000000031
    vertex 14.159999999999997 -0.04999999999999998 0.08200000000000031
    vertex 14.149999999999999 -0.04999999999999998 0.08200000000000031
  endloop
endfacet
facet normal 0.0 0.0 -1.0
  outer loop
    vertex 14.159999999999997 0.05000000000000016 0.02800000000000031
    vertex 14.149999999999999 -0.04999999999999998 0.02800000000000031
    vertex 14.149999999999999 0.05000000000000016 0.02800000000000031
  endloop
endfacet
facet normal 0.0 0.0 -1.0
  outer loop
    vertex 14.149999999999999 -0.04999999999999998 0.02800000000000031
    vertex 14.159999999999997 0.05000000000000016 0.02800000000000031
    vertex 14.159999999999997 -0.04999999999999998 0.02800000000000031
  endloop
endfacet
facet normal 1.0 -0.0 -0.0
  outer loop
    vertex 14.159999999999997 0.05000000000000016 0.02800000000000031
    vertex 14.159999999999997 -0.04999999999999998 0.08200000000000031
    vertex 14.159999999999997 -0.04999999999999998 0.02800000000000031
  endloop
endfacet
facet normal 1.0 -0.0 -0.0
  outer loop
    vertex 14.159999999999997 -0.04999999999999998 0.08200000000000031
    vertex 14.159999999999997 0.05000000000000016 0.02800000000000031
    vertex 14.159999999999997 0.05000000000000016 0.08200000000000031
  endloop
endfacet
facet normal -0.0 -0.0 1.0
  outer loop
    vertex 14.159999999999997 -0.04999999999999998 0.08200000000000031
    vertex 14.149999999999999 0.05000000000000016 0.08200000000000031
    vertex 14.149999999999999 -0.04999999999999998 0.08200000000000031
  endloop
endfacet
facet normal -0.0 -0.0 1.0
  outer loop
    vertex 14.149999999999999 0.05000000000000016 0.08200000000000031
    vertex 14.159999999999997 -0.04999999999999998 0.08200000000000031
    vertex 14.159999999999997 0.05000000000000016 0.08200000000000031
  endloop
endfacet
facet normal -1.0 0.0 0.0
  outer loop
    vertex 14.149999999999999 0.05000000000000016 0.08200000000000031
    vertex 14.149999999999999 -0.04999999999999998 0.02800000000000031
    vertex 14.149999999999999 -0.04999999999999998 0.08200000000000031
  endloop
endfacet
facet normal -1.0 0.0 0.0
  outer loop
    vertex 14.149999999999999 -0.04999999999999998 0.02800000000000031
    vertex 14.149999999999999 0.05000000000000016 0.08200000000000031
    vertex 14.149999999999999 0.05000000000000016 0.02800000000000031
  endloop
endfacet
facet normal 0.0 -1.0 0.0
  outer loop
    vertex 14.159999999999997 -0.04999999999999998 -0.45799999999999996
    vertex 14.149999999999999 -0.04999999999999998 -0.5
    vertex 14.159999999999997 -0.04999999999999998 -0.5
  endloop
endfacet
facet normal 0.0 -1.0 0.0
  outer loop
    vertex 14.149999999999999 -0.04999999999999998 -0.5
    vertex 14.159999999999997 -0.04999999999999998 -0.45799999999999996
    vertex 14.149999999999999 -0.04999999999999998 -0.45799999999999996
  endloop
endfacet
facet normal -1.0 0.0 0.0
  outer loop
    vertex 14.149999999999999 0.05000000000000016 -0.45799999999999996
    vertex 14.149999999999999 -0.04999999999999998 -0.5
    vertex 14.149999999999999 -0.04999999999999998 -0.45799999999999996
  endloop
endfacet
facet normal -1.0 0.0 0.0
  outer loop
    vertex 14.149999999999999 -0.04999999999999998 -0.5
    vertex 14.149999999999999 0.05000000000000016 -0.45799999999999996
    vertex 14.149999999999999 0.05000000000000016 -0.5
  endloop
endfacet
facet normal -0.0 -0.0 1.0
  outer loop
    vertex 14.159999999999997 -0.04999999999999998 -0.45799999999999996
    vertex 14.149999999999999 0.05000000000000016 -0.45799999999999996
    vertex 14.149999999999999 -0.04999999999999998 -0.45799999999999996
  endloop
endfacet
facet normal -0.0 -0.0 1.0
  outer loop
    vertex 14.149999999999999 0.05000000000000016 -0.45799999999999996
    vertex 14.159999999999997 -0.04999999999999998 -0.45799999999999996
    vertex 14.159999999999997 0.05000000000000016 -0.45799999999999996
  endloop
endfacet
facet normal 0.0 -1.0 0.0
  outer loop
    vertex 14.159999999999997 -0.04999999999999998 -0.3679999999999998
    vertex 14.149999999999999 -0.04999999999999998 -0.42200000000000004
    vertex 14.159999999999997 -0.04999999999999998 -0.42200000000000004
  endloop
endfacet
facet normal 0.0 -1.0 0.0
  outer loop
    vertex 14.149999999999999 -0.04999999999999998 -0.42200000000000004
    vertex 14.159999999999997 -0.04999999999999998 -0.3679999999999998
    vertex 14.149999999999999 -0.04999999999999998 -0.3679999999999998
  endloop
endfacet
facet normal 0.0 0.0 -1.0
  outer loop
    vertex 14.159999999999997 0.05000000000000016 -0.42200000000000004
    vertex 14.149999999999999 -0.04999999999999998 -0.42200000000000004
    vertex 14.149999999999999 0.05000000000000016 -0.42200000000000004
  endloop
endfacet
facet normal 0.0 0.0 -1.0
  outer loop
    vertex 14.149999999999999 -0.04999999999999998 -0.42200000000000004
    vertex 14.159999999999997 0.05000000000000016 -0.42200000000000004
    vertex 14.159999999999997 -0.04999999999999998 -0.42200000000000004
  endloop
endfacet
facet normal -1.0 0.0 0.0
  outer loop
    vertex 14.149999999999999 0.05000000000000016 -0.3679999999999998
    vertex 14.149999999999999 -0.04999999999999998 -0.42200000000000004
    vertex 14.149999999999999 -0.04999999999999998 -0.3679999999999998
  endloop
endfacet
facet normal -1.0 0.0 0.0
  outer loop
    vertex 14.149999999999999 -0.04999999999999998 -0.42200000000000004
    vertex 14.149999999999999 0.05000000000000016 -0.3679999999999998
    vertex 14.149999999999999 0.05000000000000016 -0.42200000000000004
  endloop
endfacet
facet normal -0.0 -0.0 1.0
  outer loop
    vertex 14.159999999999997 -0.04999999999999998 -0.3679999999999998
    vertex 14.149999999999999 0.05000000000000016 -0.3679999999999998
    vertex 14.149999999999999 -0.04999999999999998 -0.3679999999999998
  endloop
endfacet
facet normal -0.0 -0.0 1.0
  outer loop
    vertex 14.149999999999999 0.05000000000000016 -0.3679999999999998
    vertex 14.159999999999997 -0.04999999999999998 -0.3679999999999998
    vertex 14.159999999999997 0.05000000000000016 -0.3679999999999998
  endloop
endfacet
facet normal 1.0 -0.0 -0.0
  outer loop
    vertex 14.159999999999997 0.05000000000000016 -0.42200000000000004
    vertex 14.159999999999997 -0.04999999999999998 -0.3679999999999998
    vertex 14.159999999999997 -0.04999999999999998 -0.42200000000000004
  endloop
endfacet
facet normal 1.0 -0.0 -0.0
  outer loop
    vertex 14.159999999999997 -0.04999999999999998 -0.3679999999999998
    vertex 14.159999999999997 0.05000000000000016 -0.42200000000000004
    vertex 14.159999999999997 0.05000000000000016 -0.3679999999999998
  endloop
endfacet
facet normal 0.0 -1.0 0.0
  outer loop
    vertex 14.159999999999997 -0.04999999999999998 -0.27799999999999975
    vertex 14.149999999999999 -0.04999999999999998 -0.3319999999999998
    vertex 14.159999999999997 -0.04999999999999998 -0.3319999999999998
  endloop
endfacet
facet normal 0.0 -1.0 0.0
  outer loop
    vertex 14.149999999999999 -0.04999999999999998 -0.3319999999999998
    vertex 14.159999999999997 -0.04999999999999998 -0.27799999999999975
    vertex 14.149999999999999 -0.04999999999999998 -0.27799999999999975
  endloop
endfacet
facet normal 0.0 0.0 -1.0
  outer loop
    vertex 14.159999999999997 0.05000000000000016 -0.3319999999999998
    vertex 14.149999999999999 -0.04999999999999998 -0.3319999999999998
    vertex 14.149999999999999 0.05000000000000016 -0.3319999999999998
  endloop
endfacet
facet normal 0.0 0.0 -1.0
  outer loop
    vertex 14.149999999999999 -0.04999999999999998 -0.3319999999999998
    vertex 14.159999999999997 0.05000000000000016 -0.3319999999999998
    vertex 14.159999999999997 -0.04999999999999998 -0.3319999999999998
  endloop
endfacet
facet normal -1.0 0.0 0.0
  outer loop
    vertex 14.149999999999999 0.05000000000000016 -0.27799999999999975
    vertex 14.149999999999999 -0.04999999999999998 -0.3319999999999998
    vertex 14.149999999999999 -0.04999999999999998 -0.27799999999999975
  endloop
endfacet
facet normal -1.0 0.0 0.0
  outer loop
    vertex 14.149999999999999 -0.04999999999999998 -0.3319999999999998
    vertex 14.149999999999999 0.05000000000000016 -0.27799999999999975
    vertex 14.149999999999999 0.05000000000000016 -0.3319999999999998
  endloop
endfacet
facet normal -0.0 -0.0 1.0
  outer loop
    vertex 14.159999999999997 -0.04999999999999998 -0.27799999999999975
    vertex 14.149999999999999 0.05000000000000016 -0.27799999999999975
    vertex 14.149999999999999 -0.04999999999999998 -0.27799999999999975
  endloop
endfacet
facet normal -0.0 -0.0 1.0
  outer loop
    vertex 14.149999999999999 0.05000000000000016 -0.27799999999999975
    vertex 14.159999999999997 -0.04999999999999998 -0.27799999999999975
    vertex 14.159999999999997 0.05000000000000016 -0.27799999999999975
  endloop
endfacet
facet normal 1.0 -0.0 -0.0
  outer loop
    vertex 14.159999999999997 0.05000000000000016 -0.3319999999999998
    vertex 14.159999999999997 -0.04999999999999998 -0.27799999999999975
    vertex 14.159999999999997 -0.04999999999999998 -0.3319999999999998
  endloop
endfacet
facet normal 1.0 -0.0 -0.0
  outer loop
    vertex 14.159999999999997 -0.04999999999999998 -0.27799999999999975
    vertex 14.159999999999997 0.05000000000000016 -0.3319999999999998
    vertex 14.159999999999997 0.05000000000000016 -0.27799999999999975
  endloop
endfacet
facet normal 0.0 -1.0 0.0
  outer loop
    vertex 14.159999999999997 -0.04999999999999998 -0.1879999999999998
    vertex 14.149999999999999 -0.04999999999999998 -0.2419999999999997
    vertex 14.159999999999997 -0.04999999999999998 -0.2419999999999997
  endloop
endfacet
facet normal 0.0 -1.0 0.0
  outer loop
    vertex 14.149999999999999 -0.04999999999999998 -0.2419999999999997
    vertex 14.159999999999997 -0.04999999999999998 -0.1879999999999998
    vertex 14.149999999999999 -0.04999999999999998 -0.1879999999999998
  endloop
endfacet
facet normal 0.0 0.0 -1.0
  outer loop
    vertex 14.159999999999997 0.05000000000000016 -0.2419999999999997
    vertex 14.149999999999999 -0.04999999999999998 -0.2419999999999997
    vertex 14.149999999999999 0.05000000000000016 -0.2419999999999997
  endloop
endfacet
facet normal 0.0 0.0 -1.0
  outer loop
    vertex 14.149999999999999 -0.04999999999999998 -0.2419999999999997
    vertex 14.159999999999997 0.05000000000000016 -0.2419999999999997
    vertex 14.159999999999997 -0.04999999999999998 -0.2419999999999997
  endloop
endfacet
facet normal 1.0 -0.0 -0.0
  outer loop
    vertex 14.159999999999997 0.05000000000000016 -0.2419999999999997
    vertex 14.159999999999997 -0.04999999999999998 -0.1879999999999998
    vertex 14.159999999999997 -0.04999999999999998 -0.2419999999999997
  endloop
endfacet
facet normal 1.0 -0.0 -0.0
  outer loop
    vertex 14.159999999999997 -0.04999999999999998 -0.1879999999999998
    vertex 14.159999999999997 0.05000000000000016 -0.2419999999999997
    vertex 14.159999999999997 0.05000000000000016 -0.1879999999999998
  endloop
endfacet
facet normal -0.0 -0.0 1.0
  outer loop
    vertex 14.159999999999997 -0.04999999999999998 -0.1879999999999998
    vertex 14.149999999999999 0.05000000000000016 -0.1879999999999998
    vertex 14.149999999999999 -0.04999999999999998 -0.1879999999999998
  endloop
endfacet
facet normal -0.0 -0.0 1.0
  outer loop
    vertex 14.149999999999999 0.05000000000000016 -0.1879999999999998
    vertex 14.159999999999997 -0.04999999999999998 -0.1879999999999998
    vertex 14.159999999999997 0.05000000000000016 -0.1879999999999998
  endloop
endfacet
facet normal -1.0 0.0 0.0
  outer loop
    vertex 14.149999999999999 0.05000000000000016 -0.1879999999999998
    vertex 14.149999999999999 -0.04999999999999998 -0.2419999999999997
    vertex 14.149999999999999 -0.04999999999999998 -0.1879999999999998
  endloop
endfacet
facet normal -1.0 0.0 0.0
  outer loop
    vertex 14.149999999999999 -0.04999999999999998 -0.2419999999999997
    vertex 14.149999999999999 0.05000000000000016 -0.1879999999999998
    vertex 14.149999999999999 0.05000000000000016 -0.2419999999999997
  endloop
endfacet
facet normal 0.0 -1.0 0.0
  outer loop
    vertex 14.159999999999997 -0.04999999999999998 -0.09799999999999968
    vertex 14.149999999999999 -0.04999999999999998 -0.1519999999999997
    vertex 14.159999999999997 -0.04999999999999998 -0.1519999999999997
  endloop
endfacet
facet normal 0.0 -1.0 0.0
  outer loop
    vertex 14.149999999999999 -0.04999999999999998 -0.1519999999999997
    vertex 14.159999999999997 -0.04999999999999998 -0.09799999999999968
    vertex 14.149999999999999 -0.04999999999999998 -0.09799999999999968
  endloop
endfacet
facet normal 0.0 0.0 -1.0
  outer loop
    vertex 14.159999999999997 0.05000000000000016 -0.1519999999999997
    vertex 14.149999999999999 -0.04999999999999998 -0.1519999999999997
    vertex 14.149999999999999 0.05000000000000016 -0.1519999999999997
  endloop
endfacet
facet normal 0.0 0.0 -1.0
  outer loop
    vertex 14.149999999999999 -0.04999999999999998 -0.1519999999999997
    vertex 14.159999999999997 0.05000000000000016 -0.1519999999999997
    vertex 14.159999999999997 -0.04999999999999998 -0.1519999999999997
  endloop
endfacet
facet normal -1.0 0.0 0.0
  outer loop
    vertex 14.149999999999999 0.05000000000000016 -0.09799999999999968
    vertex 14.149999999999999 -0.04999999999999998 -0.1519999999999997
    vertex 14.149999999999999 -0.04999999999999998 -0.09799999999999968
  endloop
endfacet
facet normal -1.0 0.0 0.0
  outer loop
    vertex 14.149999999999999 -0.04999999999999998 -0.1519999999999997
    vertex 14.149999999999999 0.05000000000000016 -0.09799999999999968
    vertex 14.149999999999999 0.05000000000000016 -0.1519999999999997
  endloop
endfacet
facet normal -0.0 -0.0 1.0
  outer loop
    vertex 14.159999999999997 -0.04999999999999998 -0.09799999999999968
    vertex 14.149999999999999 0.05000000000000016 -0.09799999999999968
    vertex 14.149999999999999 -0.04999999999999998 -0.09799999999999968
  endloop
endfacet
facet normal -0.0 -0.0 1.0
  outer loop
    vertex 14.149999999999999 0.05000000000000016 -0.09799999999999968
    vertex 14.159999999999997 -0.04999999999999998 -0.09799999999999968
    vertex 14.159999999999997 0.05000000000000016 -0.09799999999999968
  endloop
endfacet
facet normal 1.0 -0.0 -0.0
  outer loop
    vertex 14.159999999999997 0.05000000000000016 -0.1519999999999997
    vertex 14.159999999999997 -0.04999999999999998 -0.09799999999999968
    vertex 14.159999999999997 -0.04999999999999998 -0.1519999999999997
  endloop
endfacet
facet normal 1.0 -0.0 -0.0
  outer loop
    vertex 14.159999999999997 -0.04999999999999998 -0.09799999999999968
    vertex 14.159999999999997 0.05000000000000016 -0.1519999999999997
    vertex 14.159999999999997 0.05000000000000016 -0.09799999999999968
  endloop
endfacet
facet normal 0.0 -1.0 0.0
  outer loop
    vertex 14.159999999999997 -0.04999999999999998 -0.007999999999999804
    vertex 14.149999999999999 -0.04999999999999998 -0.0619999999999998
    vertex 14.159999999999997 -0.04999999999999998 -0.0619999999999998
  endloop
endfacet
facet normal 0.0 -1.0 0.0
  outer loop
    vertex 14.149999999999999 -0.04999999999999998 -0.0619999999999998
    vertex 14.159999999999997 -0.04999999999999998 -0.007999999999999804
    vertex 14.149999999999999 -0.04999999999999998 -0.007999999999999804
  endloop
endfacet
facet normal 0.0 0.0 -1.0
  outer loop
    vertex 14.159999999999997 0.05000000000000016 -0.0619999999999998
    vertex 14.149999999999999 -0.04999999999999998 -0.0619999999999998
    vertex 14.149999999999999 0.05000000000000016 -0.0619999999999998
  endloop
endfacet
facet normal 0.0 0.0 -1.0
  outer loop
    vertex 14.149999999999999 -0.04999999999999998 -0.0619999999999998
    vertex 14.159999999999997 0.05000000000000016 -0.0619999999999998
    vertex 14.159999999999997 -0.04999999999999998 -0.0619999999999998
  endloop
endfacet
facet normal -1.0 0.0 0.0
  outer loop
    vertex 14.149999999999999 0.05000000000000016 -0.007999999999999804
    vertex 14.149999999999999 -0.04999999999999998 -0.0619999999999998
    vertex 14.149999999999999 -0.04999999999999998 -0.007999999999999804
  endloop
endfacet
facet normal -1.0 0.0 0.0
  outer loop
    vertex 14.149999999999999 -0.04999999999999998 -0.0619999999999998
    vertex 14.149999999999999 0.05000000000000016 -0.007999999999999804
    vertex 14.149999999999999 0.05000000000000016 -0.0619999999999998
  endloop
endfacet
facet normal -0.0 -0.0 1.0
  outer loop
    vertex 14.159999999999997 -0.04999999999999998 -0.007999999999999804
    vertex 14.149999999999999 0.05000000000000016 -0.007999999999999804
    vertex 14.149999999999999 -0.04999999999999998 -0.007999999999999804
  endloop
endfacet
facet normal -0.0 -0.0 1.0
  outer loop
    vertex 14.149999999999999 0.05000000000000016 -0.007999999999999804
    vertex 14.159999999999997 -0.04999999999999998 -0.007999999999999804
    vertex 14.159999999999997 0.05000000000000016 -0.007999999999999804
  endloop
endfacet
facet normal 1.0 -0.0 -0.0
  outer loop
    vertex 14.159999999999997 0.05000000000000016 -0.0619999999999998
    vertex 14.159999999999997 -0.04999999999999998 -0.007999999999999804
    vertex 14.159999999999997 -0.04999999999999998 -0.0619999999999998
  endloop
endfacet
facet normal 1.0 -0.0 -0.0
  outer loop
    vertex 14.159999999999997 -0.04999999999999998 -0.007999999999999804
    vertex 14.159999999999997 0.05000000000000016 -0.0619999999999998
    vertex 14.159999999999997 0.05000000000000016 -0.007999999999999804
  endloop
endfacet
facet normal 1.0 -0.0 -0.0
  outer loop
    vertex 14.67 0.05000000000000016 -0.5
    vertex 14.67 -0.04999999999999998 0.25000000000000017
    vertex 14.67 -0.04999999999999998 -0.5
  endloop
endfacet
facet normal 1.0 -0.0 -0.0
  outer loop
    vertex 14.67 -0.04999999999999998 0.25000000000000017
    vertex 14.67 0.05000000000000016 -0.5
    vertex 14.67 0.05000000000000016 0.25000000000000017
  endloop
endfacet
facet normal -0.0 -0.0 1.0
  outer loop
    vertex 14.67 -0.04999999999999998 0.25000000000000017
    vertex 14.659999999999998 0.05000000000000016 0.25000000000000017
    vertex 14.659999999999998 -0.04999999999999998 0.25000000000000017
  endloop
endfacet
facet normal -0.0 -0.0 1.0
  outer loop
    vertex 14.659999999999998 0.05000000000000016 0.25000000000000017
    vertex 14.67 -0.04999999999999998 0.25000000000000017
    vertex 14.67 0.05000000000000016 0.25000000000000017
  endloop
endfacet
facet normal 0.0 -1.0 0.0
  outer loop
    vertex 14.67 -0.04999999999999998 0.25000000000000017
    vertex 14.659999999999998 -0.04999999999999998 -0.5
    vertex 14.67 -0.04999999999999998 -0.5
  endloop
endfacet
facet normal 0.0 -1.0 0.0
  outer loop
    vertex 14.659999999999998 -0.04999999999999998 -0.5
    vertex 14.67 -0.04999999999999998 0.25000000000000017
    vertex 14.659999999999998 -0.04999999999999998 0.25000000000000017
  endloop
endfacet
facet normal -0.0 1.0 -0.0
  outer loop
    vertex 14.659999999999998 0.05000000000000016 0.25000000000000017
    vertex 14.67 0.05000000000000016 -0.5
    vertex 14.659999999999998 0.05000000000000016 -0.5
  endloop
endfacet
facet normal -0.0 1.0 -0.0
  outer loop
    vertex 14.67 0.05000000000000016 -0.5
    vertex 14.659999999999998 0.05000000000000016 0.25000000000000017
    vertex 14.67 0.05000000000000016 0.25000000000000017
  endloop
endfacet
facet normal 1.0 -0.0 -0.0
  outer loop
    vertex 14.159999999999997 0.05000000000000016 -0.5
    vertex 14.159999999999997 -0.04999999999999998 -0.45799999999999996
    vertex 14.159999999999997 -0.04999999999999998 -0.5
  endloop
endfacet
facet normal 1.0 -0.0 -0.0
  outer loop
    vertex 14.159999999999997 -0.04999999999999998 -0.45799999999999996
    vertex 14.159999999999997 0.05000000000000016 -0.5
    vertex 14.159999999999997 0.05000000000000016 -0.45799999999999996
  endloop
endfacet
facet normal 0.0 0.0 -1.0
  outer loop
    vertex 14.159999999999997 0.05000000000000016 -0.5
    vertex 14.149999999999999 -0.04999999999999998 -0.5
    vertex 14.149999999999999 0.05000000000000016 -0.5
  endloop
endfacet
facet normal 0.0 0.0 -1.0
  outer loop
    vertex 14.149999999999999 -0.04999999999999998 -0.5
    vertex 14.159999999999997 0.05000000000000016 -0.5
    vertex 14.159999999999997 -0.04999999999999998 -0.5
  endloop
endfacet
facet normal 0.0 0.0 -1.0
  outer loop
    vertex 14.659999999999998 0.05000000000000016 -0.5
    vertex 14.159999999999997 -0.04999999999999998 -0.5
    vertex 14.159999999999997 0.05000000000000016 -0.5
  endloop
endfacet
facet normal 0.0 0.0 -1.0
  outer loop
    vertex 14.159999999999997 -0.04999999999999998 -0.5
    vertex 14.659999999999998 0.05000000000000016 -0.5
    vertex 14.659999999999998 -0.04999999999999998 -0.5
  endloop
endfacet
facet normal 0.0 0.0 -1.0
  outer loop
    vertex 14.67 0.05000000000000016 -0.5
    vertex 14.659999999999998 -0.04999999999999998 -0.5
    vertex 14.659999999999998 0.05000000000000016 -0.5
  endloop
endfacet
facet normal 0.0 0.0 -1.0
  outer loop
    vertex 14.659999999999998 -0.04999999999999998 -0.5
    vertex 14.67 0.05000000000000016 -0.5
    vertex 14.67 -0.04999999999999998 -0.5
  endloop
endfacet
facet normal -1.0 0.0 0.0
  outer loop
    vertex 14.659999999999998 0.05000000000000016 0.25000000000000017
    vertex 14.659999999999998 -0.04999999999999998 -0.5
    vertex 14.659999999999998 -0.04999999999999998 0.25000000000000017
  endloop
endfacet
facet normal -1.0 0.0 0.0
  outer loop
    vertex 14.659999999999998 -0.04999999999999998 -0.5
    vertex 14.659999999999998 0.05000000000000016 0.25000000000000017
    vertex 14.659999999999998 0.05000000000000016 -0.5
  endloop
endfacet
endsolid cassion_b=0.5
