solid foundation
facet normal 0.0 1.0 0.0
  outer loop
    vertex 7.55 0.1 -0.4
    vertex 8.71 0.1 -0.3000000000000001
    vertex 8.91 0.1 -0.4000000000000001
  endloop
endfacet
facet normal 0.0 1.0 0.0
  outer loop
    vertex 8.71 0.1 -0.3000000000000001
    vertex 7.55 0.1 -0.4
    vertex 7.750000000000001 0.1 -0.3
  endloop
endfacet
facet normal 0.0 -1.0 0.0
  outer loop
    vertex 8.71 -0.1 -0.3000000000000001
    vertex 7.55 -0.1 -0.4
    vertex 8.91 -0.1 -0.4000000000000001
  endloop
endfacet
facet normal 0.0 -1.0 0.0
  outer loop
    vertex 7.55 -0.1 -0.4
    vertex 8.71 -0.1 -0.3000000000000001
    vertex 7.750000000000001 -0.1 -0.3
  endloop
endfacet
facet normal -6.635215253053871e-17 -0.0 -1.0
  outer loop
    vertex 8.91 0.1 -0.4000000000000001
    vertex 7.55 -0.1 -0.4
    vertex 7.55 0.1 -0.4
  endloop
endfacet
facet normal -6.635215253053871e-17 -0.0 -1.0
  outer loop
    vertex 7.55 -0.1 -0.4
    vertex 8.91 0.1 -0.4000000000000001
    vertex 8.91 -0.1 -0.4000000000000001
  endloop
endfacet
facet normal 0.44721359549995665 0.0 0.8944271909999165
  outer loop
    vertex 8.91 -0.1 -0.4000000000000001
    vertex 8.71 0.1 -0.3000000000000001
    vertex 8.71 -0.1 -0.3000000000000001
  endloop
endfacet
facet normal 0.44721359549995665 0.0 0.8944271909999165
  outer loop
    vertex 8.71 0.1 -0.3000000000000001
    vertex 8.91 -0.1 -0.4000000000000001
    vertex 8.91 0.1 -0.4000000000000001
  endloop
endfacet
facet normal 9.399888275159661e-17 0.0 1.0
  outer loop
    vertex 8.71 -0.1 -0.3000000000000001
    vertex 7.750000000000001 0.1 -0.3
    vertex 7.750000000000001 -0.1 -0.3
  endloop
endfacet
facet normal 9.399888275159661e-17 0.0 1.0
  outer loop
    vertex 7.750000000000001 0.1 -0.3
    vertex 8.71 -0.1 -0.3000000000000001
    vertex 8.71 0.1 -0.3000000000000001
  endloop
endfacet
facet normal -0.44721359549995665 0.0 0.8944271909999165
  outer loop
    vertex 7.750000000000001 -0.1 -0.3
    vertex 7.55 0.1 -0.4
    vertex 7.55 -0.1 -0.4
  endloop
endfacet
facet normal -0.44721359549995665 0.0 0.8944271909999165
  outer loop
    vertex 7.55 0.1 -0.4
    vertex 7.750000000000001 -0.1 -0.3
    vertex 7.750000000000001 0.1 -0.3
  endloop
endfacet
endsolid foundation
