solid left
facet normal 0.0 1.0 0.0
  outer loop
    vertex 0.15 0.9099999999999999 0.07
    vertex 0.45 0.9099999999999999 -0.029999999999999995
    vertex 0.15 0.9099999999999999 -0.029999999999999995
  endloop
endfacet
facet normal 0.0 1.0 0.0
  outer loop
    vertex 0.45 0.9099999999999999 -0.029999999999999995
    vertex 0.15 0.9099999999999999 0.07
    vertex 0.45 0.9099999999999999 0.07
  endloop
endfacet
facet normal -0.0 -1.0 -0.0
  outer loop
    vertex 0.45 -0.18000000000000002 0.07
    vertex 0.15 -0.18000000000000002 -0.029999999999999995
    vertex 0.45 -0.18000000000000002 -0.029999999999999995
  endloop
endfacet
facet normal -0.0 -1.0 -0.0
  outer loop
    vertex 0.15 -0.18000000000000002 -0.029999999999999995
    vertex 0.45 -0.18000000000000002 0.07
    vertex 0.15 -0.18000000000000002 0.07
  endloop
endfacet
facet normal -1.0 0.0 0.0
  outer loop
    vertex 0.15 0.9099999999999999 0.07
    vertex 0.15 -0.18000000000000002 -0.029999999999999995
    vertex 0.15 -0.18000000000000002 0.07
  endloop
endfacet
facet normal -1.0 0.0 0.0
  outer loop
    vertex 0.15 -0.18000000000000002 -0.029999999999999995
    vertex 0.15 0.9099999999999999 0.07
    vertex 0.15 0.9099999999999999 -0.029999999999999995
  endloop
endfacet
facet normal -0.0 0.0 1.0
  outer loop
    vertex 0.45 -0.18000000000000002 0.07
    vertex 0.15 0.9099999999999999 0.07
    vertex 0.15 -0.18000000000000002 0.07
  endloop
endfacet
facet normal -0.0 0.0 1.0
  outer loop
    vertex 0.15 0.9099999999999999 0.07
    vertex 0.45 -0.18000000000000002 0.07
    vertex 0.45 0.9099999999999999 0.07
  endloop
endfacet
facet normal 1.0 0.0 0.0
  outer loop
    vertex 0.45 0.9099999999999999 -0.029999999999999995
    vertex 0.45 -0.18000000000000002 0.07
    vertex 0.45 -0.18000000000000002 -0.029999999999999995
  endloop
endfacet
facet normal 1.0 0.0 0.0
  outer loop
    vertex 0.45 -0.18000000000000002 0.07
    vertex 0.45 0.9099999999999999 -0.029999999999999995
    vertex 0.45 0.9099999999999999 0.07
  endloop
endfacet
facet normal -0.0 -0.0 -1.0
  outer loop
    vertex 0.45 0.9099999999999999 -0.029999999999999995
    vertex 0.15 -0.18000000000000002 -0.029999999999999995
    vertex 0.15 0.9099999999999999 -0.029999999999999995
  endloop
endfacet
facet normal -0.0 -0.0 -1.0
  outer loop
    vertex 0.15 -0.18000000000000002 -0.029999999999999995
    vertex 0.45 0.9099999999999999 -0.029999999999999995
    vertex 0.45 -0.18000000000000002 -0.029999999999999995
  endloop
endfacet
endsolid left
